2014025_C5_02_grf
version=1
nRows=24
nColumns=19
inDegrees=no
endheader
time	ground_force_1_vx	ground_force_1_vy	ground_force_1_vz	ground_force_1_px	ground_force_1_py	ground_force_1_pz	ground_force_1_mx	ground_force_1_my	ground_force_1_mz	ground_force_2_vx	ground_force_2_vy	ground_force_2_vz	ground_force_2_px	ground_force_2_py	ground_force_2_pz	ground_force_2_mx	ground_force_2_my	ground_force_2_mz
      0.62500000	      0.00000000	      0.00000000	      0.00000000	      0.00000000	      0.00000000	      0.00000000	      0.00000000	      0.00000000	      0.00000000	    -35.24398897	    619.26899478	    -65.86187594	      0.86588942	     -0.00200000	     -0.18679603	      0.00000000	      0.80726250	      0.00000000
      0.62600000	      0.00000000	      0.00000000	      0.00000000	      0.00000000	      0.00000000	      0.00000000	      0.00000000	      0.00000000	      0.00000000	    -34.47667044	    610.87317765	    -65.92579335	      0.86698339	     -0.00200000	     -0.18629163	      0.00000000	      0.76566205	      0.00000000
      0.62700000	      0.00000000	      0.00000000	      0.00000000	      0.00000000	      0.00000000	      0.00000000	      0.00000000	      0.00000000	      0.00000000	    -33.74226205	    602.62495652	    -65.98220579	      0.86809588	     -0.00200000	     -0.18578512	      0.00000000	      0.72364033	      0.00000000
      0.62800000	      0.00000000	      0.00000000	      0.00000000	      0.00000000	      0.00000000	      0.00000000	      0.00000000	      0.00000000	      0.00000000	    -33.03365037	    594.49844062	    -66.03209898	      0.86922265	     -0.00200000	     -0.18527739	     -0.00000000	      0.68138250	     -0.00000000
      0.62900000	      0.00000000	      0.00000000	      0.00000000	      0.00000000	      0.00000000	      0.00000000	      0.00000000	      0.00000000	      0.00000000	    -32.35656302	    586.52821928	    -66.07323550	      0.87036656	     -0.00200000	     -0.18476868	      0.00000000	      0.63895637	      0.00000000
      0.63000000	      0.00000000	      0.00000000	      0.00000000	      0.00000000	      0.00000000	      0.00000000	      0.00000000	      0.00000000	      0.00000000	    -31.70406539	    578.68622243	    -66.10692441	      0.87152353	     -0.00200000	     -0.18425967	      0.00000000	      0.59649593	      0.00000000
      0.63100000	      0.00000000	      0.00000000	      0.00000000	      0.00000000	      0.00000000	      0.00000000	      0.00000000	      0.00000000	      0.00000000	    -31.08146181	    571.00808248	    -66.13079533	      0.87269594	     -0.00200000	     -0.18375091	      0.00000000	      0.55412231	      0.00000000
      0.63200000	      0.00000000	      0.00000000	      0.00000000	      0.00000000	      0.00000000	      0.00000000	      0.00000000	      0.00000000	      0.00000000	    -30.48206493	    563.46379220	    -66.14645720	      0.87387995	     -0.00200000	     -0.18324284	      0.00000000	      0.51192318	      0.00000000
      0.63300000	      0.00000000	      0.00000000	      0.00000000	      0.00000000	      0.00000000	      0.00000000	      0.00000000	      0.00000000	      0.00000000	    -29.91073066	    556.08998984	    -66.15146659	      0.87507739	     -0.00200000	     -0.18273631	      0.00000000	      0.47007388	      0.00000000
      0.63400000	      0.00000000	      0.00000000	      0.00000000	      0.00000000	      0.00000000	      0.00000000	      0.00000000	      0.00000000	      0.00000000	    -29.36106082	    548.85491729	    -66.14769846	      0.87628470	     -0.00200000	     -0.18223153	      0.00000000	      0.42861166	      0.00000000
      0.63500000	      0.00000000	      0.00000000	      0.00000000	      0.00000000	      0.00000000	      0.00000000	      0.00000000	      0.00000000	      0.00000000	    -28.83745311	    541.79599509	    -66.13268591	      0.87750314	     -0.00200000	     -0.18172965	      0.00000000	      0.38776230	      0.00000000
      0.63600000	      0.00000000	      0.00000000	      0.00000000	      0.00000000	      0.00000000	      0.00000000	      0.00000000	      0.00000000	      0.00000000	    -28.33385020	    534.87997502	    -66.10852554	      0.87872950	     -0.00200000	     -0.18123064	      0.00000000	      0.34750190	      0.00000000
      0.63700000	      0.00000000	      0.00000000	      0.00000000	      0.00000000	      0.00000000	      0.00000000	      0.00000000	      0.00000000	      0.00000000	    -27.85415668	    528.14479917	    -66.07279740	      0.87996441	     -0.00200000	     -0.18073594	      0.00000000	      0.30810237	      0.00000000
      0.63800000	      0.00000000	      0.00000000	      0.00000000	      0.00000000	      0.00000000	      0.00000000	      0.00000000	      0.00000000	      0.00000000	    -27.39269100	    521.55587822	    -66.02777541	      0.88120505	     -0.00200000	     -0.18024528	      0.00000000	      0.26948181	      0.00000000
      0.63900000	      0.00000000	      0.00000000	      0.00000000	      0.00000000	      0.00000000	      0.00000000	      0.00000000	      0.00000000	      0.00000000	    -26.95284225	    515.15147090	    -65.97114913	      0.88245142	     -0.00200000	     -0.17976040	      0.00000000	      0.23194914	      0.00000000
      0.64000000	      0.00000000	      0.00000000	      0.00000000	      0.00000000	      0.00000000	      0.00000000	      0.00000000	      0.00000000	      0.00000000	    -26.52932703	    508.89592618	    -65.90532809	      0.88370115	     -0.00200000	     -0.17928074	      0.00000000	      0.19536812	      0.00000000
      0.64100000	      0.00000000	      0.00000000	      0.00000000	      0.00000000	      0.00000000	      0.00000000	      0.00000000	      0.00000000	      0.00000000	    -26.12500079	    502.82768905	    -65.82819484	      0.88495351	     -0.00200000	     -0.17880832	      0.00000000	      0.16007370	      0.00000000
      0.64200000	      0.00000000	      0.00000000	      0.00000000	      0.00000000	      0.00000000	      0.00000000	      0.00000000	      0.00000000	      0.00000000	    -25.73501877	    496.91013992	    -65.74223191	      0.88620667	     -0.00200000	     -0.17834226	      0.00000000	      0.12587950	      0.00000000
      0.64300000	      0.00000000	      0.00000000	      0.00000000	      0.00000000	      0.00000000	      0.00000000	      0.00000000	      0.00000000	      0.00000000	    -25.36169859	    491.18170515	    -65.64555131	      0.88745918	     -0.00200000	     -0.17788484	      0.00000000	      0.09313962	      0.00000000
      0.64400000	      0.00000000	      0.00000000	      0.00000000	      0.00000000	      0.00000000	      0.00000000	      0.00000000	      0.00000000	      0.00000000	    -25.00069421	    485.60507596	    -65.54061472	      0.88870979	     -0.00200000	     -0.17743491	      0.00000000	      0.06162181	      0.00000000
      0.64500000	      0.00000000	      0.00000000	      0.00000000	      0.00000000	      0.00000000	      0.00000000	      0.00000000	      0.00000000	      0.00000000	    -24.65382172	    480.21856695	    -65.42582363	      0.88995629	     -0.00200000	     -0.17699498	      0.00000000	      0.03169345	      0.00000000
      0.64600000	      0.00000000	      0.00000000	      0.00000000	      0.00000000	      0.00000000	      0.00000000	      0.00000000	      0.00000000	      0.00000000	    -24.31725059	    474.98434782	    -65.30356929	      0.89119811	     -0.00200000	     -0.17656360	      0.00000000	      0.00307977	      0.00000000
      0.64700000	      0.00000000	      0.00000000	      0.00000000	      0.00000000	      0.00000000	      0.00000000	      0.00000000	      0.00000000	      0.00000000	    -23.99232192	    469.94054690	    -65.17256349	      0.89243232	     -0.00200000	     -0.17614353	      0.00000000	     -0.02384344	     -0.00000000
      0.64800000	      0.00000000	      0.00000000	      0.00000000	      0.00000000	      0.00000000	      0.00000000	      0.00000000	      0.00000000	      0.00000000	    -23.67572207	    465.04903585	    -65.03506452	      0.89365901	     -0.00200000	     -0.17573300	      0.00000000	     -0.04938360	     -0.00000000
